<?xml version="1.0" ?><svg viewBox="0 0 30 30" xmlns="http://www.w3.org/2000/svg"><title/><g data-name="Layer 2" id="Layer_2"><g id="Interface-Solid"><g id="interface-solid-multimedia-previous-track-button"><path d="M15,2.5A12.5,12.5,0,1,0,27.5,15,12.51408,12.51408,0,0,0,15,2.5Zm1.50586,16.44141A2.0003,2.0003,0,0,1,13.36133,20.582L7.71484,16.64062a2.00033,2.00033,0,0,1-.00048-3.28027l.00048-.001L13.36133,9.418a2.0003,2.0003,0,0,1,3.14453,1.64062Zm6.63476,0a2.00075,2.00075,0,0,1-3.145,1.64062l-1.94288-1.35644c-.01135-.00782-.0166-.02051-.02752-.02881a.97274.97274,0,0,1-.24555-.25733l-.00177-.00244a.973.973,0,0,1-.17779-.53662V11.59961a.97271.97271,0,0,1,.17773-.53638l.00189-.00293a.976.976,0,0,1,.24543-.25708c.01092-.0083.01623-.021.02758-.02881L19.99561,9.418a2.00075,2.00075,0,0,1,3.145,1.64062Z" fill="none"/><path d="M15,0A15,15,0,1,0,30,15,15.01672,15.01672,0,0,0,15,0Zm0,27.5A12.5,12.5,0,1,1,27.5,15,12.51408,12.51408,0,0,1,15,27.5Z"/><path d="M15.43066,9.28516a1.99574,1.99574,0,0,0-2.06933.13281L7.71484,13.35938l-.00048.001a2.00033,2.00033,0,0,0,.00048,3.28027L13.36133,20.582a2.0003,2.0003,0,0,0,3.14453-1.64062V11.05859A1.99392,1.99392,0,0,0,15.43066,9.28516Z"/><path d="M22.06494,9.28516a1.99574,1.99574,0,0,0-2.06933.13281l-1.94288,1.35644c-.01135.00782-.01666.02051-.02758.02881a.976.976,0,0,0-.24543.25708l-.00189.00293a.97271.97271,0,0,0-.17773.53638v6.80078a.973.973,0,0,0,.17779.53662l.00177.00244a.97274.97274,0,0,0,.24555.25733c.01092.0083.01617.021.02752.02881L19.99561,20.582a2.00075,2.00075,0,0,0,3.145-1.64062V11.05859A1.99344,1.99344,0,0,0,22.06494,9.28516Z"/></g></g></g></svg>